# File created by Blade
# Date/Time:  Wed Apr 08 14:55:03 2015
# Frame Rate: 120.000 fps
#------------------------------------------------------
:FULLY-SPECIFIED
:DEGREES
2138
root 3.124768 31.612158 -5.126273 13.411526 -8.867908 -2.363885
Spine -3.696237 -0.867615 -0.874906
Head 8.433507 -2.802031 -0.752539
LeftShoulder -20.267510 46.940815 4.306243
LeftArm 52.592016 12.505681 -76.242994
LeftForeArm -2.174029 -0.000000 120.871367
LeftHand 2.140341 -0.000000 -8.047053
LeftHandThumb1 -26.253704 0.000000 33.147579
RightShoulder -4.897978 -10.346527 -19.812004
RightArm 14.237871 -27.828866 83.586736
RightForeArm 1.245602 -0.000000 117.462593
RightHand 11.766156 -0.000000 -1.576082
RightHandThumb1 -24.326973 -0.000000 -32.862282
LeftUpLeg -49.407634 -5.004547 8.918715
LeftLeg 35.336651 -0.000000 -0.000000
LeftFoot 2.450711 9.190047 -19.605166
LeftToeBase -2.993076 -0.000000 0.000000
RightUpLeg -4.628413 1.128723 6.047222
RightLeg 13.361813 -0.000000 -0.000000
RightFoot -23.422781 -21.640100 8.557803
RightToeBase -4.596192 -0.000000 0.000000
2139
root 3.141695 31.588121 -5.021722 13.713461 -8.744518 -2.435093
Spine -3.986563 -0.882019 -0.826269
Head 8.303196 -2.938418 -0.694648
LeftShoulder -20.104149 46.748210 4.445328
LeftArm 52.635179 12.542709 -76.370500
LeftForeArm -2.464686 -0.000000 120.931637
LeftHand 2.251873 0.000000 -7.898198
LeftHandThumb1 -26.253704 0.000000 33.147579
RightShoulder -4.920443 -10.160749 -19.737462
RightArm 14.302971 -27.685408 83.449704
RightForeArm 1.075283 -0.000000 117.541116
RightHand 11.710843 -0.000000 -1.525870
RightHandThumb1 -24.326973 -0.000000 -32.862282
LeftUpLeg -49.368799 -5.251986 9.276354
LeftLeg 34.339183 -0.000000 -0.000000
LeftFoot 3.639642 9.184074 -18.472215
LeftToeBase -3.882066 -0.000000 0.000000
RightUpLeg -4.689580 1.105766 6.061938
RightLeg 13.300563 -0.000000 -0.000000
RightFoot -23.525175 -21.565045 8.652901
RightToeBase -4.699846 -0.000000 0.000000
2140
root 3.156333 31.562855 -4.909374 14.010173 -8.632227 -2.516585
Spine -4.280980 -0.903518 -0.787912
Head 8.164056 -3.002604 -0.585521
LeftShoulder -19.981384 46.551065 4.603394
LeftArm 52.709414 12.618015 -76.496214
LeftForeArm -2.854046 0.000000 120.951392
LeftHand 2.413925 -0.000000 -7.595509
LeftHandThumb1 -26.253704 0.000000 33.147579
RightShoulder -4.917828 -10.047026 -19.644447
RightArm 14.380356 -27.423015 83.330253
RightForeArm 0.780052 -0.000000 117.678509
RightHand 11.473514 -0.000000 -1.330754
RightHandThumb1 -24.326973 -0.000000 -32.862282
LeftUpLeg -49.306968 -5.492142 9.628619
LeftLeg 33.461458 -0.000000 -0.000000
LeftFoot 4.723485 9.175528 -17.522654
LeftToeBase -4.361966 -0.000000 0.000000
RightUpLeg -4.733976 1.062561 6.091743
RightLeg 13.239440 -0.000000 -0.000000
RightFoot -23.619131 -21.483656 8.759129
RightToeBase -4.824785 -0.000000 0.000000
2141
root 3.174644 31.537817 -4.791141 14.317514 -8.560763 -2.582031
Spine -4.599109 -0.868711 -0.770408
Head 8.033200 -3.129262 -0.504611
LeftShoulder -19.781115 46.353741 4.820594
LeftArm 52.779497 12.663219 -76.600364
LeftForeArm -3.314185 -0.000000 120.964880
LeftHand 2.605662 -0.000000 -7.333253
LeftHandThumb1 -26.253704 0.000000 33.147579
RightShoulder -4.972171 -9.932532 -19.560239
RightArm 14.527090 -27.275671 83.176413
RightForeArm 0.814664 0.000000 117.706594
RightHand 11.514480 -0.000000 -1.347381
RightHandThumb1 -24.326973 -0.000000 -32.862282
LeftUpLeg -49.240001 -5.582188 9.784247
LeftLeg 32.702391 -0.000000 -0.000000
LeftFoot 5.864115 9.431325 -16.126393
LeftToeBase -4.839615 -0.000000 0.000000
RightUpLeg -4.794442 1.044683 6.090779
RightLeg 13.200776 -0.000000 -0.000000
RightFoot -23.728559 -21.422709 8.867514
RightToeBase -4.950486 -0.000000 0.000000
2142
root 3.192654 31.513939 -4.671344 14.645979 -8.485950 -2.624133
Spine -4.926251 -0.903348 -0.792891
Head 7.862597 -3.229911 -0.353615
LeftShoulder -19.637695 46.150680 5.021997
LeftArm 52.869448 12.718293 -76.690813
LeftForeArm -3.744354 0.000000 120.986636
LeftHand 2.826798 -0.000000 -7.179132
LeftHandThumb1 -26.253704 0.000000 33.147579
RightShoulder -4.991073 -9.776283 -19.470923
RightArm 14.629376 -27.091575 83.058437
RightForeArm 0.641712 0.000000 117.738005
RightHand 11.487759 -0.000000 -1.279140
RightHandThumb1 -24.326973 -0.000000 -32.862282
LeftUpLeg -49.205498 -5.730051 10.022433
LeftLeg 32.086586 -0.000000 -0.000000
LeftFoot 7.005983 9.612455 -15.628753
LeftToeBase -5.357736 -0.000000 0.000000
RightUpLeg -4.879245 1.007109 6.074188
RightLeg 13.159631 -0.000000 -0.000000
RightFoot -23.818623 -21.400558 8.961353
RightToeBase -5.097507 -0.000000 0.000000
2143
root 3.211776 31.490170 -4.545173 14.964593 -8.434574 -2.643322
Spine -5.252389 -0.920671 -0.857435
Head 7.692818 -3.298151 -0.182447
LeftShoulder -19.438430 45.909559 5.308132
LeftArm 52.923144 12.809456 -76.755058
LeftForeArm -3.849434 -0.000000 121.003812
LeftHand 3.043996 -0.000000 -6.815470
LeftHandThumb1 -26.253704 0.000000 33.147579
RightShoulder -4.993094 -9.632290 -19.379720
RightArm 14.703334 -26.847892 82.961494
RightForeArm 0.455299 -0.000000 117.784165
RightHand 11.383658 -0.000000 -1.238023
RightHandThumb1 -24.326973 -0.000000 -32.862282
LeftUpLeg -49.133722 -5.787938 10.120132
LeftLeg 31.562901 -0.000000 -0.000000
LeftFoot 8.243912 9.900335 -15.549200
LeftToeBase -5.485260 -0.000000 0.000000
RightUpLeg -4.962143 0.997784 6.027672
RightLeg 13.153567 -0.000000 -0.000000
RightFoot -23.926943 -21.357943 9.101940
RightToeBase -5.233920 -0.000000 0.000000
2144
root 3.234565 31.464955 -4.412873 15.272692 -8.390339 -2.661296
Spine -5.561560 -1.015272 -0.894003
Head 7.487132 -3.313467 -0.059141
LeftShoulder -19.363497 45.684266 5.492384
LeftArm 53.018399 12.861904 -76.790314
LeftForeArm -4.215413 -0.000000 121.029825
LeftHand 3.278150 -0.000000 -6.621198
LeftHandThumb1 -26.253704 0.000000 33.147579
RightShoulder -4.911273 -9.425286 -19.350193
RightArm 14.710005 -26.594230 82.941221
RightForeArm 0.459190 -0.000000 117.838125
RightHand 11.320595 -0.000000 -1.185270
RightHandThumb1 -24.326973 -0.000000 -32.862282
LeftUpLeg -49.029377 -5.812835 10.151470
LeftLeg 31.189330 -0.000000 -0.000000
LeftFoot 9.147806 10.220630 -16.248397
LeftToeBase -5.061282 -0.000000 0.000000
RightUpLeg -5.005515 1.010798 5.975441
RightLeg 13.104687 -0.000000 -0.000000
RightFoot -24.012570 -21.380890 9.182254
RightToeBase -5.324363 -0.000000 0.000000
2145
root 3.258471 31.439778 -4.271378 15.541856 -8.357549 -2.649476
Spine -5.840625 -1.030589 -0.997509
Head 7.278590 -3.378300 0.148711
LeftShoulder -19.158549 45.482367 5.791908
LeftArm 53.140593 12.899679 -76.803618
LeftForeArm -4.598299 -0.000000 121.101843
LeftHand 3.380485 -0.000000 -6.468468
LeftHandThumb1 -26.253704 0.000000 33.147579
RightShoulder -4.907151 -9.265664 -19.284389
RightArm 14.715030 -26.324790 82.912365
RightForeArm 0.474866 -0.000000 117.885240
RightHand 11.322694 -0.000000 -1.139156
RightHandThumb1 -24.326973 -0.000000 -32.862282
LeftUpLeg -48.861316 -5.775034 10.069664
LeftLeg 30.985279 -0.000000 -0.000000
LeftFoot 9.289050 10.546952 -17.919065
LeftToeBase -10.725529 -0.000000 0.000000
RightUpLeg -5.009912 1.002481 5.890423
RightLeg 13.079448 -0.000000 -0.000000
RightFoot -24.128894 -21.374056 9.303361
RightToeBase -5.385479 -0.000000 0.000000
2146
root 3.285997 31.415377 -4.122556 15.809863 -8.324076 -2.619688
Spine -6.116338 -1.064353 -1.105862
Head 7.037833 -3.459595 0.330214
LeftShoulder -18.977969 45.294652 6.069693
LeftArm 53.298705 12.938851 -76.752894
LeftForeArm -4.937956 -0.000000 121.172288
LeftHand 3.550280 -0.000000 -6.208002
LeftHandThumb1 -26.253704 0.000000 33.147579
RightShoulder -4.914583 -9.117306 -19.240913
RightArm 14.717225 -26.076332 82.904044
RightForeArm 0.488213 -0.000000 117.938535
RightHand 11.330135 -0.000000 -1.126396
RightHandThumb1 -24.326973 -0.000000 -32.862282
LeftUpLeg -48.698554 -5.620416 9.861820
LeftLeg 30.992216 -0.000000 -0.000000
LeftFoot 8.507499 10.262180 -19.341559
LeftToeBase -12.588209 -0.000000 0.000000
RightUpLeg -4.996459 0.951475 5.781750
RightLeg 13.034571 -0.000000 -0.000000
RightFoot -24.203469 -21.346912 9.410530
RightToeBase -5.521667 -0.000000 0.000000
2147
root 3.315524 31.391280 -3.967571 16.066546 -8.308689 -2.566691
Spine -6.389080 -1.103985 -1.239738
Head 6.802192 -3.494254 0.504679
LeftShoulder -18.783011 45.124652 6.345120
LeftArm 53.475172 12.933897 -76.675654
LeftForeArm -5.312138 -0.000000 121.274904
LeftHand 3.727236 -0.000000 -6.061699
LeftHandThumb1 -26.253704 0.000000 33.147579
RightShoulder -4.889862 -9.013579 -19.212075
RightArm 14.743935 -25.833648 82.916719
RightForeArm 0.665667 -0.000000 117.993682
RightHand 11.397025 -0.000000 -1.208731
RightHandThumb1 -24.326973 -0.000000 -32.862282
LeftUpLeg -48.508022 -5.397649 9.532505
LeftLeg 30.991127 -0.000000 -0.000000
LeftFoot 7.369759 9.534917 -19.770327
LeftToeBase -11.164264 -0.000000 0.000000
RightUpLeg -4.977155 0.888159 5.641184
RightLeg 13.012165 -0.000000 -0.000000
RightFoot -24.274905 -21.297409 9.515063
RightToeBase -5.618361 -0.000000 0.000000
2148
root 3.345914 31.369823 -3.808913 16.343961 -8.302895 -2.504359
Spine -6.678296 -1.157792 -1.397175
Head 6.546585 -3.529998 0.727935
LeftShoulder -18.623288 44.956292 6.588666
LeftArm 53.679069 12.904497 -76.525681
LeftForeArm -5.667898 -0.000000 121.406060
LeftHand 3.835129 -0.000000 -6.059301
LeftHandThumb1 -26.253704 0.000000 33.147579
RightShoulder -4.832996 -8.907894 -19.176529
RightArm 14.686418 -25.502743 82.976376
RightForeArm 0.661770 -0.000000 118.123682
RightHand 11.373939 0.000000 -1.219721
RightHandThumb1 -24.326973 -0.000000 -32.862282
LeftUpLeg -48.320515 -5.143006 9.124467
LeftLeg 30.932810 -0.000000 -0.000000
LeftFoot 6.289886 9.096571 -19.763550
LeftToeBase -11.400596 -0.000000 0.000000
RightUpLeg -4.967640 0.891674 5.476477
RightLeg 12.990346 -0.000000 -0.000000
RightFoot -24.344265 -21.198692 9.696591
RightToeBase -5.780991 -0.000000 0.000000
2149
root 3.382677 31.350353 -3.643467 16.590809 -8.246188 -2.392141
Spine -6.935027 -1.285862 -1.576569
Head 6.289960 -3.571360 0.923595
LeftShoulder -18.469537 44.801918 6.810023
LeftArm 53.906284 12.851149 -76.362687
LeftForeArm -5.994242 0.000000 121.545129
LeftHand 3.951893 0.000000 -5.906453
LeftHandThumb1 -26.253704 0.000000 33.147579
RightShoulder -4.786384 -8.806522 -19.150814
RightArm 14.648939 -25.209025 83.036184
RightForeArm 0.732757 -0.000000 118.233011
RightHand 11.400068 -0.000000 -1.167417
RightHandThumb1 -24.326973 -0.000000 -32.862282
LeftUpLeg -48.119109 -4.899306 8.693893
LeftLeg 30.794503 -0.000000 -0.000000
LeftFoot 5.422313 8.624409 -20.037189
LeftToeBase -11.134266 -0.000000 0.000000
RightUpLeg -4.932608 0.798673 5.268080
RightLeg 12.979663 -0.000000 -0.000000
RightFoot -24.386687 -21.096657 9.856760
RightToeBase -5.974963 -0.000000 0.000000
